<svg width="107" height="50" viewBox="0 0 107 50" fill="none" xmlns="http://www.w3.org/2000/svg">
<g clip-path="url(#clip0_56_7)">
<path d="M21.6869 43.5781C15.9607 44.3839 9.9347 42.6155 5.5303 38.2714C2.45073 35.2325 0.648579 31.4105 0.122314 27.4557C0.674586 33.0129 3.10856 38.4208 7.42424 42.6773C17.3223 52.4398 33.3718 52.4398 43.2699 42.6773L44.0379 41.9199C37.8038 47.5797 28.5177 48.1335 21.6869 43.5781Z" fill="url(#paint0_linear_56_7)"/>
<path d="M53.4999 17.4125L43.2699 7.32261C33.3718 -2.43989 17.3223 -2.43989 7.42424 7.32261C3.10856 11.5792 0.674586 16.987 0.122314 22.5443C0.648579 18.5895 2.45073 14.769 5.53183 11.7301C12.6915 4.66848 24.1377 4.41196 31.6095 10.959C31.8925 11.2065 32.1694 11.463 32.4417 11.7301L36.9348 16.1617L45.8538 24.9585" fill="url(#paint1_linear_56_7)"/>
<path d="M19.0098 33.8383C14.3255 29.2181 14.0776 21.8834 18.2587 16.9735C11.9634 23.9778 12.2143 34.6954 19.0144 41.4024C19.8482 42.2247 20.7447 42.949 21.687 43.5782C25.6218 43.0245 29.4127 41.256 32.4388 38.2715L36.9319 33.8399C31.9829 38.7211 23.9589 38.7211 19.0098 33.8383Z" fill="url(#paint2_linear_56_7)"/>
<path d="M19.0097 16.1617C19.2989 15.8765 19.5987 15.6094 19.9078 15.3574C24.8859 11.297 32.2719 11.5641 36.9333 16.1617L32.4402 11.73C32.1694 11.463 31.891 11.2065 31.608 10.959C24.1362 4.41195 12.69 4.66846 5.53034 11.73C2.45077 14.7689 0.648619 18.5895 0.122355 22.5442C-0.0398083 24.1769 -0.0398083 25.8231 0.122355 27.4557C0.648619 31.4105 2.45077 35.231 5.53187 38.2699C9.93627 42.614 15.9623 44.3824 21.6885 43.5766C20.7461 42.9489 19.8496 42.2232 19.0159 41.4008C12.2157 34.6938 11.9648 23.9762 18.2601 16.9719C18.4957 16.6958 18.7436 16.4227 19.0097 16.1617Z" fill="url(#paint3_linear_56_7)"/>
<path d="M85.313 6.42185C91.0392 5.6161 97.0653 7.38452 101.47 11.7286C104.551 14.7675 106.353 18.588 106.879 22.5428C106.327 16.9856 103.893 11.5762 99.5773 7.32114C89.6792 -2.44136 73.6297 -2.44136 63.7316 7.32114L62.9636 8.0786C69.1977 2.42028 78.4838 1.86802 85.313 6.42185Z" fill="url(#paint4_linear_56_7)"/>
<path d="M53.5 32.5874L63.73 42.6773C73.6281 52.4398 89.6776 52.4398 99.5757 42.6773C103.891 38.4208 106.324 33.0114 106.878 27.4557C106.351 31.4105 104.549 35.2325 101.468 38.2699C94.3085 45.3315 82.8622 45.588 75.3905 39.0409C75.1074 38.7935 74.8305 38.5369 74.5582 38.2699L61.1477 25.043" fill="url(#paint5_linear_56_7)"/>
<path d="M106.879 22.5442C106.353 18.5894 104.551 14.7674 101.47 11.73C97.0652 7.38595 91.0391 5.61754 85.313 6.42328C86.2553 7.05098 87.1518 7.77675 87.9856 8.5991C94.7857 15.3061 95.0366 26.0237 88.7413 33.028C88.5042 33.3056 88.2564 33.5787 87.9902 33.8398C87.701 34.1249 87.4012 34.392 87.0922 34.644C82.1141 38.7029 74.728 38.4373 70.0681 33.8398L74.5613 38.2714C74.832 38.5384 75.1105 38.795 75.3935 39.0424C82.8652 45.5895 94.3115 45.333 101.471 38.2714C104.552 35.2325 106.354 31.412 106.881 27.4572C107.041 25.823 107.041 24.1769 106.879 22.5442Z" fill="url(#paint6_linear_56_7)"/>
<path d="M70.0682 16.1617C75.0173 11.2805 83.0428 11.2805 87.9918 16.1617C92.6762 20.782 92.924 28.1167 88.743 33.0266C95.0383 26.0223 94.7874 15.3047 87.9873 8.59769C87.1535 7.77535 86.257 7.05108 85.3146 6.42188C81.3799 6.97564 77.5889 8.74405 74.5629 11.7286L61.1523 24.9555L70.0682 16.1617Z" fill="url(#paint7_linear_56_7)"/>
<path d="M62.9637 8.08005L53.5001 17.414L49.6388 21.2225L49.6296 21.2315L49.6204 21.2406L45.8494 24.96L45.8922 25.0022L45.8494 25.0445L36.9304 33.8413L32.4373 38.2729C29.4112 41.2575 25.6188 43.0259 21.6855 43.5796C28.5163 48.135 37.8009 47.5827 44.035 41.9229L53.4986 32.5889L57.3308 28.8091L61.1477 25.0445L61.1049 25.0022L61.1477 24.96L74.5583 11.7331C77.5843 8.74848 81.3768 6.98007 85.31 6.42631C78.4839 1.86796 69.1978 2.42021 62.9637 8.08005Z" fill="url(#paint8_linear_56_7)"/>
</g>
<defs>
<linearGradient id="paint0_linear_56_7" x1="8.66276" y1="38.079" x2="42.3282" y2="48.1077" gradientUnits="userSpaceOnUse">
<stop stop-color="#8BE4F9"/>
<stop offset="1" stop-color="#56D699"/>
</linearGradient>
<linearGradient id="paint1_linear_56_7" x1="2.06945" y1="8.0353" x2="53.5604" y2="21.9299" gradientUnits="userSpaceOnUse">
<stop stop-color="#52BBEB"/>
<stop offset="1" stop-color="#C6AFFD"/>
</linearGradient>
<linearGradient id="paint2_linear_56_7" x1="18.5324" y1="29.7992" x2="78.0184" y2="50.0204" gradientUnits="userSpaceOnUse">
<stop stop-color="#8BE4F9"/>
<stop offset="0.022" stop-color="#85E3EF"/>
<stop offset="0.0921" stop-color="#77DFD4"/>
<stop offset="0.1727" stop-color="#6BDBBE"/>
<stop offset="0.2668" stop-color="#61D9AD"/>
<stop offset="0.3832" stop-color="#5BD7A2"/>
<stop offset="0.5466" stop-color="#57D69B"/>
<stop offset="1" stop-color="#56D699"/>
</linearGradient>
<linearGradient id="paint3_linear_56_7" x1="5.99665" y1="38.6851" x2="25.945" y2="8.02518" gradientUnits="userSpaceOnUse">
<stop stop-color="#52BBEB"/>
<stop offset="1" stop-color="#8BE4F9"/>
</linearGradient>
<linearGradient id="paint4_linear_56_7" x1="66.7107" y1="1.37536" x2="101.043" y2="13.5057" gradientUnits="userSpaceOnUse">
<stop stop-color="#56D699"/>
<stop offset="1" stop-color="#FFA8ED"/>
</linearGradient>
<linearGradient id="paint5_linear_56_7" x1="64.7954" y1="22.9215" x2="97.9306" y2="43.7436" gradientUnits="userSpaceOnUse">
<stop stop-color="#C6AFFD"/>
<stop offset="1" stop-color="#DE6FC6"/>
</linearGradient>
<linearGradient id="paint6_linear_56_7" x1="78.126" y1="40.9874" x2="101.159" y2="12.2015" gradientUnits="userSpaceOnUse">
<stop stop-color="#FFA8ED"/>
<stop offset="1" stop-color="#DE6FC6"/>
</linearGradient>
<linearGradient id="paint7_linear_56_7" x1="72.4151" y1="15.1532" x2="88.9689" y2="26.3422" gradientUnits="userSpaceOnUse">
<stop stop-color="#56D699"/>
<stop offset="1" stop-color="#FFA8ED"/>
</linearGradient>
<linearGradient id="paint8_linear_56_7" x1="32.2515" y1="43.6983" x2="74.7408" y2="5.26373" gradientUnits="userSpaceOnUse">
<stop stop-color="#8FF7C6"/>
<stop offset="1" stop-color="#8FF7C6"/>
</linearGradient>
<clipPath id="clip0_56_7">
<rect width="107" height="50" fill="white"/>
</clipPath>
</defs>
</svg>
