<svg width="27" height="27" viewBox="0 0 27 27" fill="none" xmlns="http://www.w3.org/2000/svg">
<path d="M13.8529 15.7499C14.0671 15.7499 14.2766 15.684 14.4547 15.5603C14.6329 15.4367 14.7717 15.261 14.8537 15.0555C14.9357 14.8499 14.9572 14.6237 14.9154 14.4055C14.8736 14.1872 14.7704 13.9868 14.6189 13.8294C14.4674 13.6721 14.2744 13.565 14.0642 13.5216C13.8541 13.4781 13.6362 13.5004 13.4383 13.5856C13.2403 13.6707 13.0711 13.8149 12.9521 13.9999C12.8331 14.1849 12.7695 14.4024 12.7695 14.6249C12.7695 14.9233 12.8837 15.2095 13.0868 15.4204C13.29 15.6314 13.5655 15.7499 13.8529 15.7499ZM19.2695 15.7499C19.4838 15.7499 19.6932 15.684 19.8714 15.5603C20.0496 15.4367 20.1884 15.261 20.2704 15.0555C20.3524 14.8499 20.3738 14.6237 20.332 14.4055C20.2902 14.1872 20.1871 13.9868 20.0356 13.8294C19.8841 13.6721 19.691 13.565 19.4809 13.5216C19.2707 13.4781 19.0529 13.5004 18.855 13.5856C18.657 13.6707 18.4878 13.8149 18.3688 13.9999C18.2497 14.1849 18.1862 14.4024 18.1862 14.6249C18.1862 14.9233 18.3003 15.2095 18.5035 15.4204C18.7067 15.6314 18.9822 15.7499 19.2695 15.7499ZM13.8529 20.2499C14.0671 20.2499 14.2766 20.184 14.4547 20.0603C14.6329 19.9367 14.7717 19.761 14.8537 19.5555C14.9357 19.3499 14.9572 19.1237 14.9154 18.9055C14.8736 18.6872 14.7704 18.4868 14.6189 18.3294C14.4674 18.1721 14.2744 18.065 14.0642 18.0216C13.8541 17.9781 13.6362 18.0004 13.4383 18.0856C13.2403 18.1707 13.0711 18.3149 12.9521 18.4999C12.8331 18.6849 12.7695 18.9024 12.7695 19.1249C12.7695 19.4233 12.8837 19.7095 13.0868 19.9204C13.29 20.1314 13.5655 20.2499 13.8529 20.2499ZM19.2695 20.2499C19.4838 20.2499 19.6932 20.184 19.8714 20.0603C20.0496 19.9367 20.1884 19.761 20.2704 19.5555C20.3524 19.3499 20.3738 19.1237 20.332 18.9055C20.2902 18.6872 20.1871 18.4868 20.0356 18.3294C19.8841 18.1721 19.691 18.065 19.4809 18.0216C19.2707 17.9781 19.0529 18.0004 18.855 18.0856C18.657 18.1707 18.4878 18.3149 18.3688 18.4999C18.2497 18.6849 18.1862 18.9024 18.1862 19.1249C18.1862 19.4233 18.3003 19.7095 18.5035 19.9204C18.7067 20.1314 18.9822 20.2499 19.2695 20.2499ZM8.4362 15.7499C8.65046 15.7499 8.85991 15.684 9.03806 15.5603C9.21622 15.4367 9.35507 15.261 9.43707 15.0555C9.51906 14.8499 9.54052 14.6237 9.49871 14.4055C9.45691 14.1872 9.35374 13.9868 9.20223 13.8294C9.05072 13.6721 8.85769 13.565 8.64755 13.5216C8.4374 13.4781 8.21958 13.5004 8.02162 13.5856C7.82367 13.6707 7.65448 13.8149 7.53544 13.9999C7.4164 14.1849 7.35286 14.4024 7.35286 14.6249C7.35286 14.9233 7.467 15.2095 7.67017 15.4204C7.87333 15.6314 8.14888 15.7499 8.4362 15.7499ZM21.4362 4.49994H20.3529V3.37494C20.3529 3.07657 20.2387 2.79042 20.0356 2.57944C19.8324 2.36847 19.5568 2.24994 19.2695 2.24994C18.9822 2.24994 18.7067 2.36847 18.5035 2.57944C18.3003 2.79042 18.1862 3.07657 18.1862 3.37494V4.49994H9.51953V3.37494C9.51953 3.07657 9.40539 2.79042 9.20223 2.57944C8.99907 2.36847 8.72352 2.24994 8.4362 2.24994C8.14888 2.24994 7.87333 2.36847 7.67017 2.57944C7.467 2.79042 7.35286 3.07657 7.35286 3.37494V4.49994H6.26953C5.40758 4.49994 4.58093 4.85552 3.97143 5.48845C3.36194 6.12139 3.01953 6.97983 3.01953 7.87494V21.3749C3.01953 22.27 3.36194 23.1285 3.97143 23.7614C4.58093 24.3944 5.40758 24.7499 6.26953 24.7499H21.4362C22.2982 24.7499 23.1248 24.3944 23.7343 23.7614C24.3438 23.1285 24.6862 22.27 24.6862 21.3749V7.87494C24.6862 6.97983 24.3438 6.12139 23.7343 5.48845C23.1248 4.85552 22.2982 4.49994 21.4362 4.49994ZM22.5195 21.3749C22.5195 21.6733 22.4054 21.9595 22.2022 22.1704C21.9991 22.3814 21.7235 22.4999 21.4362 22.4999H6.26953C5.98221 22.4999 5.70666 22.3814 5.5035 22.1704C5.30033 21.9595 5.1862 21.6733 5.1862 21.3749V11.2499H22.5195V21.3749ZM22.5195 8.99994H5.1862V7.87494C5.1862 7.57657 5.30033 7.29042 5.5035 7.07944C5.70666 6.86846 5.98221 6.74994 6.26953 6.74994H21.4362C21.7235 6.74994 21.9991 6.86846 22.2022 7.07944C22.4054 7.29042 22.5195 7.57657 22.5195 7.87494V8.99994ZM8.4362 20.2499C8.65046 20.2499 8.85991 20.184 9.03806 20.0603C9.21622 19.9367 9.35507 19.761 9.43707 19.5555C9.51906 19.3499 9.54052 19.1237 9.49871 18.9055C9.45691 18.6872 9.35374 18.4868 9.20223 18.3294C9.05072 18.1721 8.85769 18.065 8.64755 18.0216C8.4374 17.9781 8.21958 18.0004 8.02162 18.0856C7.82367 18.1707 7.65448 18.3149 7.53544 18.4999C7.4164 18.6849 7.35286 18.9024 7.35286 19.1249C7.35286 19.4233 7.467 19.7095 7.67017 19.9204C7.87333 20.1314 8.14888 20.2499 8.4362 20.2499Z" fill="#7F7F7F"/>
</svg>
