<svg width="23" height="23" viewBox="0 0 23 23" fill="none" xmlns="http://www.w3.org/2000/svg">
<g clip-path="url(#clip0_107_246)">
<path d="M4.49365 9.34369H1.74365C1.56132 9.34369 1.38645 9.26796 1.25752 9.13317C1.12859 8.99838 1.05615 8.81556 1.05615 8.62494C1.05615 8.43431 1.12859 8.2515 1.25752 8.11671C1.38645 7.98191 1.56132 7.90619 1.74365 7.90619H4.49365C4.67599 7.90619 4.85086 7.98191 4.97979 8.11671C5.10872 8.2515 5.18115 8.43431 5.18115 8.62494C5.18115 8.81556 5.10872 8.99838 4.97979 9.13317C4.85086 9.26796 4.67599 9.34369 4.49365 9.34369ZM4.49365 12.2187H1.74365C1.56132 12.2187 1.38645 12.143 1.25752 12.0082C1.12859 11.8734 1.05615 11.6906 1.05615 11.4999C1.05615 11.3093 1.12859 11.1265 1.25752 10.9917C1.38645 10.8569 1.56132 10.7812 1.74365 10.7812H4.49365C4.67599 10.7812 4.85086 10.8569 4.97979 10.9917C5.10872 11.1265 5.18115 11.3093 5.18115 11.4999C5.18115 11.6906 5.10872 11.8734 4.97979 12.0082C4.85086 12.143 4.67599 12.2187 4.49365 12.2187ZM4.49365 15.0937H1.74365C1.56132 15.0937 1.38645 15.018 1.25752 14.8832C1.12859 14.7484 1.05615 14.5656 1.05615 14.3749C1.05615 14.1843 1.12859 14.0015 1.25752 13.8667C1.38645 13.7319 1.56132 13.6562 1.74365 13.6562H4.49365C4.67599 13.6562 4.85086 13.7319 4.97979 13.8667C5.10872 14.0015 5.18115 14.1843 5.18115 14.3749C5.18115 14.5656 5.10872 14.7484 4.97979 14.8832C4.85086 15.018 4.67599 15.0937 4.49365 15.0937ZM19.6187 22.9999H7.24365C7.06132 22.9999 6.88645 22.9242 6.75752 22.7894C6.62859 22.6546 6.55615 22.4718 6.55615 22.2812V0.718689C6.55615 0.528065 6.62859 0.345248 6.75752 0.210456C6.88645 0.0756642 7.06132 -6.10352e-05 7.24365 -6.10352e-05L19.6187 -6.10352e-05C20.1657 -6.10352e-05 20.6903 0.227115 21.0771 0.63149C21.4639 1.03587 21.6812 1.58432 21.6812 2.15619V20.8437C21.6812 21.4156 21.4639 21.964 21.0771 22.3684C20.6903 22.7728 20.1657 22.9999 19.6187 22.9999ZM7.93115 21.5624H19.6187C19.801 21.5624 19.9759 21.4867 20.1048 21.3519C20.2337 21.2171 20.3062 21.0343 20.3062 20.8437V2.15619C20.3062 1.96556 20.2337 1.78275 20.1048 1.64796C19.9759 1.51316 19.801 1.43744 19.6187 1.43744H7.93115V21.5624Z" fill="#7F7F7F"/>
<path d="M7.24365 22.9999H4.49365C3.94664 22.9999 3.42204 22.7728 3.03524 22.3684C2.64845 21.964 2.43115 21.4156 2.43115 20.8437V2.15619C2.43115 1.58432 2.64845 1.03587 3.03524 0.63149C3.42204 0.227115 3.94664 -6.10352e-05 4.49365 -6.10352e-05L7.24365 -6.10352e-05C7.42599 -6.10352e-05 7.60086 0.0756642 7.72979 0.210456C7.85872 0.345248 7.93115 0.528065 7.93115 0.718689V22.2812C7.93115 22.4718 7.85872 22.6546 7.72979 22.7894C7.60086 22.9242 7.42599 22.9999 7.24365 22.9999ZM4.49365 1.43744C4.31132 1.43744 4.13645 1.51316 4.00752 1.64796C3.87859 1.78275 3.80615 1.96556 3.80615 2.15619V20.8437C3.80615 21.0343 3.87859 21.2171 4.00752 21.3519C4.13645 21.4867 4.31132 21.5624 4.49365 21.5624H6.55615V1.43744H4.49365ZM14.1187 10.7812C13.7107 10.7812 13.312 10.6547 12.9728 10.4178C12.6336 10.1809 12.3693 9.8441 12.2132 9.4501C12.057 9.0561 12.0162 8.62255 12.0958 8.20428C12.1754 7.786 12.3718 7.4018 12.6602 7.10024C12.9487 6.79868 13.3162 6.59332 13.7163 6.51012C14.1164 6.42692 14.5311 6.46962 14.9079 6.63282C15.2848 6.79602 15.6069 7.0724 15.8336 7.42699C16.0602 7.78158 16.1812 8.19847 16.1812 8.62494C16.1812 9.19681 15.9639 9.74526 15.5771 10.1496C15.1903 10.554 14.6657 10.7812 14.1187 10.7812ZM14.1187 7.90619C13.9827 7.90619 13.8498 7.94834 13.7367 8.02732C13.6236 8.1063 13.5355 8.21855 13.4835 8.34988C13.4314 8.48122 13.4178 8.62574 13.4444 8.76516C13.4709 8.90458 13.5364 9.03265 13.6325 9.13317C13.7287 9.23369 13.8512 9.30215 13.9845 9.32988C14.1179 9.35761 14.2561 9.34338 14.3817 9.28898C14.5074 9.23458 14.6147 9.14245 14.6903 9.02426C14.7658 8.90606 14.8062 8.76709 14.8062 8.62494C14.8062 8.43431 14.7337 8.2515 14.6048 8.11671C14.4759 7.98191 14.301 7.90619 14.1187 7.90619ZM17.5562 16.5312H10.6812C10.4988 16.5312 10.3239 16.4555 10.195 16.3207C10.0661 16.1859 9.99365 16.0031 9.99365 15.8124V15.0937C9.99365 14.1406 10.3558 13.2265 11.0005 12.5525C11.6451 11.8786 12.5195 11.4999 13.4312 11.4999H14.8062C15.7178 11.4999 16.5922 11.8786 17.2368 12.5525C17.8815 13.2265 18.2437 14.1406 18.2437 15.0937V15.8124C18.2437 16.0031 18.1712 16.1859 18.0423 16.3207C17.9134 16.4555 17.7385 16.5312 17.5562 16.5312ZM11.3687 15.0937H16.8687C16.8687 14.5218 16.6514 13.9734 16.2646 13.569C15.8778 13.1646 15.3532 12.9374 14.8062 12.9374H13.4312C12.8841 12.9374 12.3595 13.1646 11.9727 13.569C11.586 13.9734 11.3687 14.5218 11.3687 15.0937Z" fill="#7F7F7F"/>
</g>
<defs>
<clipPath id="clip0_107_246">
<rect width="22" height="23" fill="white" transform="translate(0.368652 -6.10352e-05)"/>
</clipPath>
</defs>
</svg>
