<svg width="29" height="28" viewBox="0 0 29 28" fill="none" xmlns="http://www.w3.org/2000/svg">
<path d="M14.8843 2.33334C12.6215 2.33764 10.4088 2.99987 8.51569 4.23937C6.62259 5.47887 5.1308 7.24214 4.22202 9.31441C3.31324 11.3867 3.02669 13.6785 3.39728 15.9107C3.76788 18.143 4.77961 20.2192 6.30925 21.8867C7.40175 23.0709 8.72768 24.016 10.2035 24.6624C11.6793 25.3088 13.2731 25.6426 14.8843 25.6426C16.4954 25.6426 18.0892 25.3088 19.565 24.6624C21.0408 24.016 22.3668 23.0709 23.4593 21.8867C24.9889 20.2192 26.0006 18.143 26.3712 15.9107C26.7418 13.6785 26.4553 11.3867 25.5465 9.31441C24.6377 7.24214 23.1459 5.47887 21.2528 4.23937C19.3597 2.99987 17.147 2.33764 14.8843 2.33334ZM14.8843 23.3333C12.4675 23.3297 10.1463 22.3887 8.40925 20.7083C8.93664 19.4245 9.83379 18.3264 10.9867 17.5535C12.1396 16.7807 13.4963 16.3681 14.8843 16.3681C16.2722 16.3681 17.6289 16.7807 18.7818 17.5535C19.9347 18.3264 20.8319 19.4245 21.3592 20.7083C19.6222 22.3887 17.301 23.3297 14.8843 23.3333ZM12.5509 11.6667C12.5509 11.2052 12.6878 10.7541 12.9442 10.3703C13.2005 9.98663 13.565 9.68756 13.9913 9.51096C14.4177 9.33435 14.8868 9.28815 15.3395 9.37818C15.7921 9.46821 16.2078 9.69044 16.5342 10.0168C16.8605 10.3431 17.0827 10.7588 17.1728 11.2115C17.2628 11.6641 17.2166 12.1332 17.04 12.5596C16.8634 12.986 16.5643 13.3504 16.1806 13.6068C15.7969 13.8632 15.3457 14 14.8843 14C14.2654 14 13.6719 13.7542 13.2343 13.3166C12.7968 12.879 12.5509 12.2855 12.5509 11.6667ZM22.9459 18.6667C21.9035 16.8837 20.2992 15.4969 18.3843 14.7233C18.9783 14.0498 19.3653 13.2191 19.499 12.331C19.6326 11.4429 19.5071 10.5351 19.1376 9.71659C18.7681 8.89804 18.1703 8.2035 17.4158 7.7163C16.6614 7.22911 15.7823 6.96997 14.8843 6.96997C13.9862 6.96997 13.1072 7.22911 12.3527 7.7163C11.5982 8.2035 11.0004 8.89804 10.6309 9.71659C10.2614 10.5351 10.1359 11.4429 10.2695 12.331C10.4032 13.2191 10.7902 14.0498 11.3843 14.7233C9.46928 15.4969 7.86497 16.8837 6.82259 18.6667C5.99185 17.2516 5.55293 15.6409 5.55092 14C5.55092 11.5247 6.53425 9.15069 8.28459 7.40035C10.0349 5.65001 12.4089 4.66668 14.8843 4.66668C17.3596 4.66668 19.7336 5.65001 21.4839 7.40035C23.2343 9.15069 24.2176 11.5247 24.2176 14C24.2156 15.6409 23.7766 17.2516 22.9459 18.6667Z" fill="#7F7F7F"/>
</svg>
