<svg width="20" height="22" viewBox="0 0 20 22" fill="none" xmlns="http://www.w3.org/2000/svg">
<path d="M3.39971 21.4501C2.18971 21.4501 1.19971 20.4601 1.19971 19.2501V2.20007H18.7997V19.2501C18.7997 20.4601 17.8097 21.4501 16.5997 21.4501H3.39971Z" fill="white"/>
<path d="M18.2499 2.75002V19.25C18.2499 20.163 17.5129 20.9 16.5999 20.9H3.3999C2.4869 20.9 1.7499 20.163 1.7499 19.25V2.75002H18.2499ZM19.3499 1.65002H0.649902V19.25C0.649902 20.768 1.8819 22 3.3999 22H16.5999C18.1179 22 19.3499 20.768 19.3499 19.25V1.65002Z" fill="#7F7F7F"/>
<path d="M14.4001 9.07507H5.6001" stroke="#7F7F7F" stroke-width="1.1" stroke-miterlimit="10" stroke-linecap="round"/>
<path d="M14.4001 11.8251H5.6001" stroke="#7F7F7F" stroke-width="1.1" stroke-miterlimit="10" stroke-linecap="round"/>
<path d="M14.4001 14.5751H5.6001" stroke="#7F7F7F" stroke-width="1.1" stroke-miterlimit="10" stroke-linecap="round"/>
<path d="M10 1.09998V3.29998" stroke="#7F7F7F" stroke-width="1.1" stroke-miterlimit="10" stroke-linecap="round"/>
<path d="M14.3999 1.09998V3.29998" stroke="#7F7F7F" stroke-width="1.1" stroke-miterlimit="10" stroke-linecap="round"/>
<path d="M5.6001 1.09998V3.29998" stroke="#7F7F7F" stroke-width="1.1" stroke-miterlimit="10" stroke-linecap="round"/>
</svg>
